# xmcd
#
# Track frame offsets:
#	150
#	16087
#	29249
#	47286
#	60223
#	76460
#	90072
#	106234
#	121271
#	138558
#	154645
#	172532
#	189519
#	204106
#	220193
#	232005
#	248467
#	264704
#	280341
#
# Disc length: 3941 seconds
#
# Revision: 1
# Processed by: cddbd v1.5.2PL0 Copyright (c) Steve Scherf et al.
# Submitted via: audiograbber 1.83.01
#
DISCID=e70f6313
DTITLE=Various Artist - Promo Country August 2008
DYEAR=2008
DGENRE=Country
TTITLE0=Sugarland - All I Want To Do
TTITLE1=George Strait - Troubadour (Album Version) @
TTITLE2=Rascal Flatts - Bob That Head
TTITLE3=Jessica Simpson - Come On Over
TTITLE4=Toby Keith - She Never Cried In Front Of Me @
TTITLE5=Lady Antebellum - Lookin' For A Good Time
TTITLE6=Lee Brice - Upper Middle Class White Trash
TTITLE7=Jewel - I Do @
TTITLE8=Little Big Town - Fine Line (Edit)
TTITLE9=Phil Vassar - I Would
TTITLE10=Brad Paisley - Waitin' On A Woman
TTITLE11=Carolina Rain - American Radio
TTITLE12=Randy Owen - Like I Never Broke Her Heart
TTITLE13=Carter's Chord - Different Breed
TTITLE14=Stephen Cochran - Thinkin' I'm Drinkin' @
TTITLE15=Emma Mae - With You
TTITLE16=Darren Kozelsky (Kuh-Zel-Ski) - She Got Me There
TTITLE17=Brynn Marie - Start Now (Ep Version)
TTITLE18=Katy Kiefer - Rainmaker
EXTD=
EXTT0=
EXTT1=
EXTT2=
EXTT3=
EXTT4=
EXTT5=
EXTT6=
EXTT7=
EXTT8=
EXTT9=
EXTT10=
EXTT11=
EXTT12=
EXTT13=
EXTT14=
EXTT15=
EXTT16=
EXTT17=
EXTT18=
PLAYORDER=
